<svg xmlns="http://www.w3.org/2000/svg" width="1200" height="360" fill="none"><path fill="#F0B" d="M0 0h1200v360H0V0Z"/><path fill="#fff" d="M1017.44 215.831c0 5.183.17 9.239.51 12.169.46 2.93 1.14 5.408 2.05 7.437-2.27 1.126-5 2.028-8.19 2.704-3.18.676-6.2 1.014-9.04 1.014-3.301 0-5.747-.789-7.339-2.366-1.593-1.578-2.616-4.226-3.071-7.944-3.299 3.606-7.337 6.366-12.115 8.282-4.663 1.915-9.782 2.873-15.355 2.873-9.896 0-17.46-2.648-22.693-7.944-5.232-5.408-7.848-13.183-7.848-23.324v-63.38H959.6v62.197c0 5.972.91 10.254 2.73 12.845 1.934 2.479 5.176 3.719 9.726 3.719 8.076 0 14.73-4.057 19.962-12.169v-66.592h25.422v70.479ZM910.402 214.986c0 5.634.227 9.859.682 12.676.455 2.817 1.308 5.408 2.56 7.775a59.635 59.635 0 0 1-20.816 3.718c-2.844 0-4.834-1.352-5.972-4.056-1.137-2.705-1.706-7.381-1.706-14.029v-44.112c0-5.859-.91-9.916-2.73-12.169-1.706-2.366-4.777-3.55-9.213-3.55-5.915 0-12.399 2.874-19.451 8.62v68.451h-25.252v-62.535c0-7.55-.171-13.352-.512-17.409-.227-4.056-.739-7.324-1.535-9.803 8.417-2.591 15.298-3.887 20.645-3.887 2.388 0 4.094.789 5.118 2.366 1.024 1.465 1.536 3.944 1.536 7.437v2.028c5.801-4.845 10.692-8.169 14.673-9.972 4.095-1.915 8.361-2.873 12.797-2.873 9.782 0 17.062 2.648 21.839 7.944 4.891 5.183 7.337 13.126 7.337 23.831v39.549ZM813.135 185.746c0 1.578-.285 5.127-.853 10.648h-60.4c.569 8.564 2.616 15.212 6.142 19.944 3.64 4.732 8.361 7.099 14.162 7.099 2.616 0 4.777-.338 6.484-1.014 1.819-.677 3.639-1.86 5.459-3.55 1.934-1.803 4.437-4.676 7.508-8.619.568-.902 1.763-1.353 3.583-1.353 1.933 0 4.265.676 6.995 2.029 2.844 1.239 5.858 3.042 9.043 5.408C803.864 232.113 790.84 240 772.186 240c-14.332 0-25.593-4.282-33.783-12.845-8.19-8.676-12.285-20.507-12.285-35.493 0-9.803 1.82-18.31 5.46-25.521 3.754-7.211 9.043-12.733 15.868-16.564 6.939-3.943 15.128-5.915 24.569-5.915 13.081 0 23.205 3.662 30.371 10.986 7.166 7.324 10.749 17.69 10.749 31.098Zm-25.593-3.549c0-15.098-5.346-22.648-16.039-22.648-5.459 0-9.839 1.916-13.137 5.747-3.299 3.831-5.346 9.465-6.143 16.901h35.319ZM678.155 143.662c8.986 0 16.039 2.648 21.157 7.944 5.233 5.183 7.849 12.394 7.849 21.633v65.071h-25.422v-64.564c0-5.521-.797-9.239-2.389-11.154-1.479-2.029-4.379-3.043-8.702-3.043-6.483 0-11.943 2.817-16.379 8.451v70.31h-25.252v-66.254c0-4.732-.683-8-2.048-9.802-1.251-1.803-3.64-2.705-7.166-2.705-6.142 0-12.341 3.662-18.597 10.986v67.775h-25.252v-59.662c0-16-.683-25.859-2.048-29.578 2.162-1.239 4.892-2.253 8.19-3.042 3.299-.901 6.313-1.352 9.043-1.352 3.071 0 5.346.901 6.825 2.704 1.592 1.69 2.616 4.62 3.071 8.789 4.095-4.394 8.361-7.549 12.797-9.465 4.436-2.028 9.384-3.042 14.844-3.042 5.232 0 9.782 1.07 13.649 3.211 3.868 2.028 6.825 5.014 8.872 8.958 6.37-8.113 15.356-12.169 26.958-12.169ZM515.152 240c-13.764 0-24.456-4.225-32.077-12.676-7.507-8.451-11.261-20.338-11.261-35.662 0-15.324 3.754-27.155 11.261-35.493 7.621-8.338 18.313-12.507 32.077-12.507 13.763 0 24.398 4.169 31.906 12.507 7.621 8.338 11.431 20.169 11.431 35.493 0 15.324-3.81 27.211-11.431 35.662C539.55 235.775 528.915 240 515.152 240Zm0-16.225c6.256 0 10.749-2.536 13.479-7.606 2.843-5.07 4.265-13.239 4.265-24.507 0-11.155-1.422-19.211-4.265-24.169-2.73-5.07-7.223-7.606-13.479-7.606-6.256 0-10.806 2.479-13.65 7.437-2.73 4.958-4.095 13.07-4.095 24.338s1.365 19.437 4.095 24.507c2.844 5.07 7.394 7.606 13.65 7.606ZM461.018 221.915c1.252.339 2.219 1.071 2.901 2.198.683 1.126 1.024 2.479 1.024 4.056 0 2.366-.74 4.282-2.218 5.747-1.82 1.802-4.835 3.267-9.043 4.394-4.095 1.127-8.645 1.69-13.65 1.69-7.848 0-14.161-2.141-18.939-6.423-4.777-4.394-7.166-10.197-7.166-17.408v-54.93h-14.332v-15.887h14.332V120h25.252v25.352h17.745v15.887h-17.745v52.733c0 3.943.626 6.76 1.877 8.451 1.365 1.577 3.697 2.366 6.995 2.366 3.64 0 7.963-.958 12.967-2.874ZM385.112 215.831c0 5.183.171 9.239.512 12.169.455 2.93 1.138 5.408 2.048 7.437-2.275 1.126-5.005 2.028-8.19 2.704-3.185.676-6.199 1.014-9.043 1.014-3.299 0-5.744-.789-7.337-2.366-1.592-1.578-2.616-4.226-3.071-7.944-3.299 3.606-7.337 6.366-12.114 8.282-4.664 1.915-9.782 2.873-15.356 2.873-9.896 0-17.46-2.648-22.692-7.944-5.233-5.408-7.849-13.183-7.849-23.324v-63.38h25.252v62.197c0 5.972.91 10.254 2.73 12.845 1.934 2.479 5.175 3.719 9.725 3.719 8.076 0 14.731-4.057 19.963-12.169v-66.592h25.422v70.479ZM261.898 238.31c-1.706-12.056-3.356-21.803-4.948-29.24h-46.409c-1.592 7.437-3.242 17.184-4.948 29.24H180c4.322-40.902 17.858-80.338 40.608-118.31h26.446c22.635 37.746 36.114 77.183 40.437 118.31h-25.593Zm-9.043-47.831c-4.777-18.592-11.147-35.662-19.11-51.211-7.962 15.549-14.332 32.619-19.109 51.211h38.219Z"/></svg>