<svg xmlns="http://www.w3.org/2000/svg" width="600" height="200" fill="none"><path fill="#F0B" d="M0 0h600v200H0V0Z"/><path fill="#fff" d="M531.912 119.906c0 2.88.094 5.133.284 6.761.253 1.627.632 3.004 1.137 4.131-1.264.626-2.78 1.127-4.549 1.502-1.77.376-3.445.564-5.024.564-1.833 0-3.192-.438-4.076-1.315-.885-.876-1.454-2.347-1.706-4.413-1.833 2.003-4.076 3.537-6.731 4.601-2.59 1.064-5.434 1.596-8.531 1.596-5.497 0-9.7-1.471-12.606-4.413-2.907-3.005-4.361-7.324-4.361-12.958v-35.21h14.029v34.553c0 3.318.506 5.697 1.517 7.136 1.074 1.377 2.875 2.066 5.403 2.066 4.486 0 8.183-2.253 11.09-6.761V80.751h14.124v39.155ZM472.445 119.437c0 3.13.127 5.477.38 7.042.252 1.565.726 3.005 1.421 4.319a33.118 33.118 0 0 1-11.564 2.066c-1.58 0-2.686-.751-3.318-2.254-.631-1.502-.947-4.1-.947-7.793V98.31c0-3.255-.506-5.509-1.517-6.76-.948-1.315-2.654-1.972-5.119-1.972-3.286 0-6.888 1.596-10.806 4.788v38.028h-14.028V97.653c0-4.195-.095-7.418-.285-9.672-.126-2.253-.41-4.069-.853-5.446 4.676-1.44 8.5-2.16 11.47-2.16 1.327 0 2.275.439 2.843 1.315.569.814.853 2.191.853 4.132v1.126c3.223-2.691 5.941-4.538 8.152-5.54a16.592 16.592 0 0 1 7.109-1.596c5.435 0 9.479 1.471 12.133 4.413 2.718 2.88 4.076 7.293 4.076 13.24v21.972ZM418.408 103.192c0 .877-.158 2.849-.474 5.916h-33.555c.316 4.757 1.453 8.451 3.412 11.08 2.023 2.629 4.645 3.943 7.868 3.943 1.453 0 2.654-.187 3.602-.563 1.011-.376 2.022-1.033 3.033-1.972 1.074-1.001 2.465-2.598 4.171-4.788.316-.501.979-.752 1.99-.752 1.075 0 2.37.376 3.887 1.127 1.58.689 3.254 1.69 5.024 3.005-4.108 8.763-11.344 13.145-21.707 13.145-7.962 0-14.218-2.378-18.768-7.136-4.55-4.82-6.825-11.393-6.825-19.718 0-5.446 1.011-10.172 3.033-14.178 2.085-4.007 5.024-7.074 8.815-9.202 3.855-2.191 8.405-3.287 13.65-3.287 7.267 0 12.891 2.035 16.873 6.103 3.981 4.07 5.971 9.828 5.971 17.277Zm-14.218-1.971c0-8.389-2.97-12.583-8.91-12.583-3.034 0-5.466 1.065-7.299 3.193-1.833 2.128-2.97 5.258-3.412 9.39h19.621ZM343.42 79.812c4.992 0 8.91 1.471 11.754 4.413 2.906 2.88 4.36 6.886 4.36 12.02v36.149H345.41V96.526c0-3.067-.442-5.133-1.327-6.197-.821-1.127-2.433-1.69-4.834-1.69-3.602 0-6.635 1.564-9.1 4.694v39.061H316.12V95.587c0-2.63-.379-4.445-1.137-5.446-.695-1.002-2.022-1.503-3.981-1.503-3.413 0-6.857 2.035-10.332 6.104v37.652h-14.029V99.249c0-8.89-.379-14.366-1.137-16.432 1.2-.689 2.717-1.252 4.549-1.69 1.833-.501 3.508-.751 5.024-.751 1.706 0 2.97.5 3.792 1.502.885.939 1.453 2.566 1.706 4.883 2.275-2.442 4.645-4.194 7.109-5.259 2.465-1.126 5.214-1.69 8.247-1.69 2.907 0 5.434.595 7.583 1.784 2.149 1.127 3.792 2.786 4.929 4.977 3.539-4.507 8.531-6.76 14.977-6.76ZM252.862 133.333c-7.646 0-13.586-2.347-17.82-7.042-4.171-4.695-6.256-11.299-6.256-19.812 0-8.513 2.085-15.086 6.256-19.718 4.234-4.633 10.174-6.949 17.82-6.949 7.646 0 13.555 2.316 17.726 6.949 4.234 4.632 6.351 11.205 6.351 19.718s-2.117 15.117-6.351 19.812c-4.171 4.695-10.08 7.042-17.726 7.042Zm0-9.014c3.476 0 5.972-1.408 7.488-4.225 1.58-2.817 2.37-7.355 2.37-13.615 0-6.197-.79-10.673-2.37-13.427-1.516-2.817-4.012-4.226-7.488-4.226-3.476 0-6.003 1.377-7.583 4.132-1.517 2.754-2.275 7.261-2.275 13.521 0 6.26.758 10.798 2.275 13.615 1.58 2.817 4.107 4.225 7.583 4.225ZM222.788 123.286a2.624 2.624 0 0 1 1.611 1.221c.38.626.569 1.377.569 2.254 0 1.314-.411 2.378-1.232 3.192-1.011 1.002-2.686 1.815-5.024 2.441-2.275.626-4.803.939-7.583.939-4.36 0-7.868-1.189-10.522-3.568-2.654-2.441-3.981-5.665-3.981-9.671V89.578h-7.962V80.75h7.962V66.667h14.029V80.75h9.858v8.826h-9.858v29.296c0 2.191.348 3.756 1.043 4.695.758.876 2.053 1.315 3.886 1.315 2.022 0 4.424-.532 7.204-1.597ZM180.618 119.906c0 2.88.095 5.133.284 6.761.253 1.627.632 3.004 1.138 4.131-1.264.626-2.781 1.127-4.55 1.502-1.769.376-3.444.564-5.024.564-1.832 0-3.191-.438-4.076-1.315-.885-.876-1.453-2.347-1.706-4.413-1.833 2.003-4.076 3.537-6.73 4.601-2.591 1.064-5.435 1.596-8.531 1.596-5.498 0-9.7-1.471-12.607-4.413-2.907-3.005-4.36-7.324-4.36-12.958v-35.21h14.028v34.553c0 3.318.506 5.697 1.517 7.136 1.074 1.377 2.875 2.066 5.403 2.066 4.487 0 8.184-2.253 11.09-6.761V80.751h14.124v39.155ZM112.165 132.394c-.947-6.698-1.864-12.112-2.748-16.244H83.634c-.885 4.132-1.801 9.546-2.749 16.244H66.667c2.401-22.723 9.92-44.632 22.56-65.727h14.692c12.575 20.97 20.063 42.879 22.465 65.727h-14.219Zm-5.023-26.572c-2.654-10.329-6.193-19.813-10.617-28.451-4.423 8.638-7.962 18.122-10.616 28.451h21.233Z"/></svg>